<mxfile host="app.diagrams.net" modified="2023-03-22T07:56:10.648Z" agent="5.0 (Macintosh; Intel Mac OS X 10_15_7) AppleWebKit/537.36 (KHTML, like Gecko) Chrome/111.0.0.0 Safari/537.36" etag="wGtu4isB_b8XaJnb2bxY" version="20.4.0" type="github">
  <diagram name="Page-1" id="2YBvvXClWsGukQMizWep">
    <mxGraphModel dx="1426" dy="769" grid="1" gridSize="10" guides="1" tooltips="1" connect="1" arrows="1" fold="1" page="1" pageScale="1" pageWidth="850" pageHeight="1100" math="0" shadow="0">
      <root>
        <mxCell id="0" />
        <mxCell id="1" parent="0" />
        <mxCell id="aM9ryv3xv72pqoxQDRHE-1" value="消息后台" style="shape=umlLifeline;perimeter=lifelinePerimeter;whiteSpace=wrap;html=1;container=0;dropTarget=0;collapsible=0;recursiveResize=0;outlineConnect=0;portConstraint=eastwest;newEdgeStyle={&quot;edgeStyle&quot;:&quot;elbowEdgeStyle&quot;,&quot;elbow&quot;:&quot;vertical&quot;,&quot;curved&quot;:0,&quot;rounded&quot;:0};" parent="1" vertex="1">
          <mxGeometry x="75" y="120" width="100" height="300" as="geometry" />
        </mxCell>
        <mxCell id="aM9ryv3xv72pqoxQDRHE-2" value="" style="html=1;points=[];perimeter=orthogonalPerimeter;outlineConnect=0;targetShapes=umlLifeline;portConstraint=eastwest;newEdgeStyle={&quot;edgeStyle&quot;:&quot;elbowEdgeStyle&quot;,&quot;elbow&quot;:&quot;vertical&quot;,&quot;curved&quot;:0,&quot;rounded&quot;:0};" parent="aM9ryv3xv72pqoxQDRHE-1" vertex="1">
          <mxGeometry x="45" y="55" width="10" height="125" as="geometry" />
        </mxCell>
        <mxCell id="aM9ryv3xv72pqoxQDRHE-3" value="创建" style="html=1;verticalAlign=bottom;startArrow=oval;endArrow=block;startSize=8;edgeStyle=elbowEdgeStyle;elbow=vertical;curved=0;rounded=0;" parent="aM9ryv3xv72pqoxQDRHE-1" target="aM9ryv3xv72pqoxQDRHE-2" edge="1">
          <mxGeometry relative="1" as="geometry">
            <mxPoint x="-15" y="70" as="sourcePoint" />
          </mxGeometry>
        </mxCell>
        <mxCell id="aM9ryv3xv72pqoxQDRHE-5" value="消息服务" style="shape=umlLifeline;perimeter=lifelinePerimeter;whiteSpace=wrap;html=1;container=0;dropTarget=0;collapsible=0;recursiveResize=0;outlineConnect=0;portConstraint=eastwest;newEdgeStyle={&quot;edgeStyle&quot;:&quot;elbowEdgeStyle&quot;,&quot;elbow&quot;:&quot;vertical&quot;,&quot;curved&quot;:0,&quot;rounded&quot;:0};" parent="1" vertex="1">
          <mxGeometry x="335" y="120" width="100" height="300" as="geometry" />
        </mxCell>
        <mxCell id="aM9ryv3xv72pqoxQDRHE-6" value="" style="html=1;points=[];perimeter=orthogonalPerimeter;outlineConnect=0;targetShapes=umlLifeline;portConstraint=eastwest;newEdgeStyle={&quot;edgeStyle&quot;:&quot;elbowEdgeStyle&quot;,&quot;elbow&quot;:&quot;vertical&quot;,&quot;curved&quot;:0,&quot;rounded&quot;:0};" parent="aM9ryv3xv72pqoxQDRHE-5" vertex="1">
          <mxGeometry x="45" y="80" width="10" height="90" as="geometry" />
        </mxCell>
        <mxCell id="aM9ryv3xv72pqoxQDRHE-7" value="创建" style="html=1;verticalAlign=bottom;endArrow=block;edgeStyle=elbowEdgeStyle;elbow=vertical;curved=0;rounded=0;" parent="1" source="aM9ryv3xv72pqoxQDRHE-2" target="aM9ryv3xv72pqoxQDRHE-6" edge="1">
          <mxGeometry y="10" relative="1" as="geometry">
            <mxPoint x="230" y="210" as="sourcePoint" />
            <Array as="points">
              <mxPoint x="215" y="200" />
            </Array>
            <mxPoint as="offset" />
          </mxGeometry>
        </mxCell>
        <mxCell id="aM9ryv3xv72pqoxQDRHE-8" value="return" style="html=1;verticalAlign=bottom;endArrow=open;dashed=1;endSize=8;edgeStyle=elbowEdgeStyle;elbow=vertical;curved=0;rounded=0;" parent="1" source="aM9ryv3xv72pqoxQDRHE-6" target="aM9ryv3xv72pqoxQDRHE-2" edge="1">
          <mxGeometry relative="1" as="geometry">
            <mxPoint x="230" y="285" as="targetPoint" />
            <Array as="points">
              <mxPoint x="275" y="285" />
              <mxPoint x="225" y="360" />
            </Array>
          </mxGeometry>
        </mxCell>
        <mxCell id="hzsxc_w-vN9z1YMkx93Q-1" value="定时任务" style="shape=umlLifeline;perimeter=lifelinePerimeter;whiteSpace=wrap;html=1;container=0;dropTarget=0;collapsible=0;recursiveResize=0;outlineConnect=0;portConstraint=eastwest;newEdgeStyle={&quot;edgeStyle&quot;:&quot;elbowEdgeStyle&quot;,&quot;elbow&quot;:&quot;vertical&quot;,&quot;curved&quot;:0,&quot;rounded&quot;:0};" vertex="1" parent="1">
          <mxGeometry x="50" y="550" width="100" height="300" as="geometry" />
        </mxCell>
        <mxCell id="hzsxc_w-vN9z1YMkx93Q-2" value="" style="html=1;points=[];perimeter=orthogonalPerimeter;outlineConnect=0;targetShapes=umlLifeline;portConstraint=eastwest;newEdgeStyle={&quot;edgeStyle&quot;:&quot;elbowEdgeStyle&quot;,&quot;elbow&quot;:&quot;vertical&quot;,&quot;curved&quot;:0,&quot;rounded&quot;:0};" vertex="1" parent="hzsxc_w-vN9z1YMkx93Q-1">
          <mxGeometry x="45" y="80" width="10" height="170" as="geometry" />
        </mxCell>
        <mxCell id="hzsxc_w-vN9z1YMkx93Q-3" value="消息服务" style="shape=umlLifeline;perimeter=lifelinePerimeter;whiteSpace=wrap;html=1;container=0;dropTarget=0;collapsible=0;recursiveResize=0;outlineConnect=0;portConstraint=eastwest;newEdgeStyle={&quot;edgeStyle&quot;:&quot;elbowEdgeStyle&quot;,&quot;elbow&quot;:&quot;vertical&quot;,&quot;curved&quot;:0,&quot;rounded&quot;:0};" vertex="1" parent="1">
          <mxGeometry x="520" y="550" width="100" height="300" as="geometry" />
        </mxCell>
        <mxCell id="hzsxc_w-vN9z1YMkx93Q-4" value="" style="html=1;points=[];perimeter=orthogonalPerimeter;outlineConnect=0;targetShapes=umlLifeline;portConstraint=eastwest;newEdgeStyle={&quot;edgeStyle&quot;:&quot;elbowEdgeStyle&quot;,&quot;elbow&quot;:&quot;vertical&quot;,&quot;curved&quot;:0,&quot;rounded&quot;:0};" vertex="1" parent="hzsxc_w-vN9z1YMkx93Q-3">
          <mxGeometry x="45" y="80" width="10" height="170" as="geometry" />
        </mxCell>
        <mxCell id="hzsxc_w-vN9z1YMkx93Q-5" value="消息前台" style="shape=umlLifeline;perimeter=lifelinePerimeter;whiteSpace=wrap;html=1;container=0;dropTarget=0;collapsible=0;recursiveResize=0;outlineConnect=0;portConstraint=eastwest;newEdgeStyle={&quot;edgeStyle&quot;:&quot;elbowEdgeStyle&quot;,&quot;elbow&quot;:&quot;vertical&quot;,&quot;curved&quot;:0,&quot;rounded&quot;:0};" vertex="1" parent="1">
          <mxGeometry x="230" y="550" width="100" height="300" as="geometry" />
        </mxCell>
        <mxCell id="hzsxc_w-vN9z1YMkx93Q-6" value="" style="html=1;points=[];perimeter=orthogonalPerimeter;outlineConnect=0;targetShapes=umlLifeline;portConstraint=eastwest;newEdgeStyle={&quot;edgeStyle&quot;:&quot;elbowEdgeStyle&quot;,&quot;elbow&quot;:&quot;vertical&quot;,&quot;curved&quot;:0,&quot;rounded&quot;:0};" vertex="1" parent="hzsxc_w-vN9z1YMkx93Q-5">
          <mxGeometry x="45" y="130" width="10" height="70" as="geometry" />
        </mxCell>
        <mxCell id="hzsxc_w-vN9z1YMkx93Q-8" value="需要将业务相关的字段，按照消息服务通用字段进行转换" style="text;html=1;strokeColor=none;fillColor=none;align=center;verticalAlign=middle;whiteSpace=wrap;rounded=0;" vertex="1" parent="1">
          <mxGeometry x="175" y="190" width="160" height="80" as="geometry" />
        </mxCell>
        <mxCell id="hzsxc_w-vN9z1YMkx93Q-10" value="获取该应用等待发送的消息" style="html=1;verticalAlign=bottom;endArrow=block;rounded=0;" edge="1" parent="1">
          <mxGeometry width="80" relative="1" as="geometry">
            <mxPoint x="100" y="640" as="sourcePoint" />
            <mxPoint x="570" y="640" as="targetPoint" />
            <Array as="points" />
          </mxGeometry>
        </mxCell>
        <mxCell id="hzsxc_w-vN9z1YMkx93Q-13" value="return" style="html=1;verticalAlign=bottom;endArrow=open;dashed=1;endSize=8;rounded=0;exitX=-0.1;exitY=0.171;exitDx=0;exitDy=0;exitPerimeter=0;" edge="1" parent="1" source="hzsxc_w-vN9z1YMkx93Q-4" target="hzsxc_w-vN9z1YMkx93Q-1">
          <mxGeometry relative="1" as="geometry">
            <mxPoint x="480" y="660" as="sourcePoint" />
            <mxPoint x="400" y="660" as="targetPoint" />
          </mxGeometry>
        </mxCell>
        <mxCell id="hzsxc_w-vN9z1YMkx93Q-14" value="创建前台消息" style="html=1;verticalAlign=bottom;endArrow=block;rounded=0;" edge="1" parent="1" target="hzsxc_w-vN9z1YMkx93Q-6">
          <mxGeometry width="80" relative="1" as="geometry">
            <mxPoint x="100" y="690" as="sourcePoint" />
            <mxPoint x="180" y="680" as="targetPoint" />
          </mxGeometry>
        </mxCell>
        <mxCell id="hzsxc_w-vN9z1YMkx93Q-21" value="" style="html=1;points=[];perimeter=orthogonalPerimeter;" vertex="1" parent="1">
          <mxGeometry x="275" y="710" width="10" height="40" as="geometry" />
        </mxCell>
        <mxCell id="hzsxc_w-vN9z1YMkx93Q-22" value="1. 解析消息字段(send_to，消息参数)&lt;br&gt;2. 创建消息&lt;br&gt;3. 返回结果&lt;br&gt;保证幂等" style="edgeStyle=orthogonalEdgeStyle;html=1;align=left;spacingLeft=2;endArrow=block;rounded=0;entryX=1;entryY=0;" edge="1" target="hzsxc_w-vN9z1YMkx93Q-21" parent="1">
          <mxGeometry x="0.3333" y="-10" relative="1" as="geometry">
            <mxPoint x="280" y="690" as="sourcePoint" />
            <Array as="points">
              <mxPoint x="310" y="690" />
            </Array>
            <mxPoint x="10" y="10" as="offset" />
          </mxGeometry>
        </mxCell>
        <mxCell id="hzsxc_w-vN9z1YMkx93Q-23" value="return" style="html=1;verticalAlign=bottom;endArrow=open;dashed=1;endSize=8;rounded=0;" edge="1" parent="1" source="hzsxc_w-vN9z1YMkx93Q-5">
          <mxGeometry relative="1" as="geometry">
            <mxPoint x="180" y="750" as="sourcePoint" />
            <mxPoint x="100" y="750" as="targetPoint" />
          </mxGeometry>
        </mxCell>
        <mxCell id="hzsxc_w-vN9z1YMkx93Q-25" value="" style="html=1;points=[];perimeter=orthogonalPerimeter;" vertex="1" parent="1">
          <mxGeometry x="95" y="630" width="10" height="170" as="geometry" />
        </mxCell>
        <mxCell id="hzsxc_w-vN9z1YMkx93Q-26" value="5分钟/执行" style="edgeStyle=orthogonalEdgeStyle;html=1;align=left;spacingLeft=2;endArrow=block;rounded=0;entryX=1;entryY=0;" edge="1" target="hzsxc_w-vN9z1YMkx93Q-25" parent="1">
          <mxGeometry relative="1" as="geometry">
            <mxPoint x="100" y="610" as="sourcePoint" />
            <Array as="points">
              <mxPoint x="130" y="610" />
            </Array>
          </mxGeometry>
        </mxCell>
        <mxCell id="hzsxc_w-vN9z1YMkx93Q-27" value="&lt;font style=&quot;font-size: 18px;&quot;&gt;发送消息&lt;/font&gt;" style="text;html=1;strokeColor=none;fillColor=none;align=center;verticalAlign=middle;whiteSpace=wrap;rounded=0;" vertex="1" parent="1">
          <mxGeometry x="10" y="500" width="90" height="50" as="geometry" />
        </mxCell>
        <mxCell id="hzsxc_w-vN9z1YMkx93Q-66" value="&lt;font style=&quot;font-size: 12px;&quot;&gt;更新消息状态&lt;/font&gt;" style="html=1;verticalAlign=bottom;endArrow=block;rounded=0;fontSize=18;" edge="1" parent="1" target="hzsxc_w-vN9z1YMkx93Q-3">
          <mxGeometry width="80" relative="1" as="geometry">
            <mxPoint x="105" y="780" as="sourcePoint" />
            <mxPoint x="185" y="780" as="targetPoint" />
          </mxGeometry>
        </mxCell>
        <mxCell id="hzsxc_w-vN9z1YMkx93Q-67" value="return" style="html=1;verticalAlign=bottom;endArrow=open;dashed=1;endSize=8;rounded=0;fontSize=12;" edge="1" parent="1" target="hzsxc_w-vN9z1YMkx93Q-1">
          <mxGeometry relative="1" as="geometry">
            <mxPoint x="570" y="800" as="sourcePoint" />
            <mxPoint x="490" y="800" as="targetPoint" />
          </mxGeometry>
        </mxCell>
        <mxCell id="hzsxc_w-vN9z1YMkx93Q-70" value="&lt;span style=&quot;font-size: 18px;&quot;&gt;创建消息&lt;/span&gt;" style="text;html=1;strokeColor=none;fillColor=none;align=center;verticalAlign=middle;whiteSpace=wrap;rounded=0;" vertex="1" parent="1">
          <mxGeometry x="5" y="40" width="90" height="50" as="geometry" />
        </mxCell>
        <mxCell id="hzsxc_w-vN9z1YMkx93Q-71" value="mysql" style="shape=umlLifeline;perimeter=lifelinePerimeter;whiteSpace=wrap;html=1;container=0;dropTarget=0;collapsible=0;recursiveResize=0;outlineConnect=0;portConstraint=eastwest;newEdgeStyle={&quot;edgeStyle&quot;:&quot;elbowEdgeStyle&quot;,&quot;elbow&quot;:&quot;vertical&quot;,&quot;curved&quot;:0,&quot;rounded&quot;:0};" vertex="1" parent="1">
          <mxGeometry x="500" y="120" width="100" height="300" as="geometry" />
        </mxCell>
        <mxCell id="hzsxc_w-vN9z1YMkx93Q-73" value="" style="html=1;points=[];perimeter=orthogonalPerimeter;fontSize=12;" vertex="1" parent="1">
          <mxGeometry x="545" y="220" width="10" height="40" as="geometry" />
        </mxCell>
        <mxCell id="hzsxc_w-vN9z1YMkx93Q-74" value="写入message表" style="html=1;verticalAlign=bottom;endArrow=block;entryX=0;entryY=0;rounded=0;fontSize=12;" edge="1" target="hzsxc_w-vN9z1YMkx93Q-73" parent="1" source="aM9ryv3xv72pqoxQDRHE-5">
          <mxGeometry relative="1" as="geometry">
            <mxPoint x="480" y="300" as="sourcePoint" />
          </mxGeometry>
        </mxCell>
        <mxCell id="hzsxc_w-vN9z1YMkx93Q-75" value="return" style="html=1;verticalAlign=bottom;endArrow=open;dashed=1;endSize=8;exitX=0;exitY=0.95;rounded=0;fontSize=12;" edge="1" source="hzsxc_w-vN9z1YMkx93Q-73" parent="1" target="aM9ryv3xv72pqoxQDRHE-5">
          <mxGeometry relative="1" as="geometry">
            <mxPoint x="480" y="376" as="targetPoint" />
          </mxGeometry>
        </mxCell>
        <mxCell id="hzsxc_w-vN9z1YMkx93Q-76" value="mysql" style="shape=umlLifeline;perimeter=lifelinePerimeter;whiteSpace=wrap;html=1;container=0;dropTarget=0;collapsible=0;recursiveResize=0;outlineConnect=0;portConstraint=eastwest;newEdgeStyle={&quot;edgeStyle&quot;:&quot;elbowEdgeStyle&quot;,&quot;elbow&quot;:&quot;vertical&quot;,&quot;curved&quot;:0,&quot;rounded&quot;:0};" vertex="1" parent="1">
          <mxGeometry x="690" y="550" width="100" height="300" as="geometry" />
        </mxCell>
        <mxCell id="hzsxc_w-vN9z1YMkx93Q-78" value="" style="html=1;points=[];perimeter=orthogonalPerimeter;fontSize=12;" vertex="1" parent="1">
          <mxGeometry x="735" y="640" width="10" height="20" as="geometry" />
        </mxCell>
        <mxCell id="hzsxc_w-vN9z1YMkx93Q-79" value="从message表获取" style="html=1;verticalAlign=bottom;endArrow=block;entryX=0;entryY=0;rounded=0;fontSize=12;" edge="1" target="hzsxc_w-vN9z1YMkx93Q-78" parent="1">
          <mxGeometry relative="1" as="geometry">
            <mxPoint x="580" y="640" as="sourcePoint" />
          </mxGeometry>
        </mxCell>
        <mxCell id="hzsxc_w-vN9z1YMkx93Q-80" value="return" style="html=1;verticalAlign=bottom;endArrow=open;dashed=1;endSize=8;exitX=0;exitY=0.95;rounded=0;fontSize=12;" edge="1" source="hzsxc_w-vN9z1YMkx93Q-78" parent="1" target="hzsxc_w-vN9z1YMkx93Q-3">
          <mxGeometry relative="1" as="geometry">
            <mxPoint x="310" y="586" as="targetPoint" />
          </mxGeometry>
        </mxCell>
        <mxCell id="hzsxc_w-vN9z1YMkx93Q-81" value="" style="html=1;points=[];perimeter=orthogonalPerimeter;fontSize=12;" vertex="1" parent="1">
          <mxGeometry x="735" y="640" width="10" height="160" as="geometry" />
        </mxCell>
        <mxCell id="hzsxc_w-vN9z1YMkx93Q-82" value="写入sponsor_user_message表" style="html=1;verticalAlign=bottom;endArrow=block;rounded=0;fontSize=12;" edge="1" target="hzsxc_w-vN9z1YMkx93Q-76" parent="1">
          <mxGeometry x="0.5573" y="-10" relative="1" as="geometry">
            <mxPoint x="290" y="690" as="sourcePoint" />
            <mxPoint as="offset" />
          </mxGeometry>
        </mxCell>
        <mxCell id="hzsxc_w-vN9z1YMkx93Q-83" value="return" style="html=1;verticalAlign=bottom;endArrow=open;dashed=1;endSize=8;rounded=0;fontSize=12;" edge="1" parent="1">
          <mxGeometry relative="1" as="geometry">
            <mxPoint x="290" y="730" as="targetPoint" />
            <mxPoint x="730" y="730" as="sourcePoint" />
          </mxGeometry>
        </mxCell>
        <mxCell id="hzsxc_w-vN9z1YMkx93Q-87" value="更新message表状态" style="html=1;verticalAlign=bottom;endArrow=block;rounded=0;fontSize=12;" edge="1" parent="1" target="hzsxc_w-vN9z1YMkx93Q-76">
          <mxGeometry width="80" relative="1" as="geometry">
            <mxPoint x="570" y="780" as="sourcePoint" />
            <mxPoint x="650" y="780" as="targetPoint" />
          </mxGeometry>
        </mxCell>
        <mxCell id="hzsxc_w-vN9z1YMkx93Q-88" value="return" style="html=1;verticalAlign=bottom;endArrow=open;dashed=1;endSize=8;rounded=0;fontSize=12;" edge="1" parent="1" target="hzsxc_w-vN9z1YMkx93Q-3">
          <mxGeometry relative="1" as="geometry">
            <mxPoint x="735" y="800" as="sourcePoint" />
            <mxPoint x="655" y="800" as="targetPoint" />
          </mxGeometry>
        </mxCell>
      </root>
    </mxGraphModel>
  </diagram>
</mxfile>
